HIERARCHY
ROOT joint_0
{
	OFFSET 0.000000 0.000000 0.000000
	CHANNELS 6 Xposition Yposition Zposition Zrotation Yrotation Xrotation 
	JOINT joint_1
	{
		OFFSET 4.520508 -1.939880 86.268921
		CHANNELS 3 Zrotation Yrotation Xrotation
		JOINT joint_2
		{
			OFFSET -4.459717 -0.438538 78.934082
			CHANNELS 3 Zrotation Yrotation Xrotation
			JOINT joint_3
			{
				OFFSET -5.197754 -0.781128 78.796997
				CHANNELS 3 Zrotation Yrotation Xrotation
				JOINT joint_4
				{
					OFFSET 2.952026 -3.710571 109.812988
					CHANNELS 3 Zrotation Yrotation Xrotation
					JOINT joint_5
					{
						OFFSET 24.716797 -5.488037 87.903931
						CHANNELS 3 Zrotation Yrotation Xrotation
						End Site
						{
							OFFSET 0.000000 0.000000 0.000000
						}
					}
				}
				JOINT joint_6
				{
					OFFSET -3.154419 -25.484680 60.934937
					CHANNELS 3 Zrotation Yrotation Xrotation
					JOINT joint_7
					{
						OFFSET -28.997192 -144.472229 -32.671997
						CHANNELS 3 Zrotation Yrotation Xrotation
						JOINT joint_8
						{
							OFFSET 19.867676 -18.614380 -249.897949
							CHANNELS 3 Zrotation Yrotation Xrotation
							JOINT joint_9
							{
								OFFSET 5.281982 -13.816650 -264.993042
								CHANNELS 3 Zrotation Yrotation Xrotation
								End Site
								{
									OFFSET 0.000000 0.000000 0.000000
								}
							}
						}
					}
				}
				JOINT joint_10
				{
					OFFSET 6.494995 21.336792 62.257935
					CHANNELS 3 Zrotation Yrotation Xrotation
					JOINT joint_11
					{
						OFFSET 31.106567 145.200745 -27.007935
						CHANNELS 3 Zrotation Yrotation Xrotation
						JOINT joint_12
						{
							OFFSET 29.119141 24.684326 -248.460083
							CHANNELS 3 Zrotation Yrotation Xrotation
							JOINT joint_13
							{
								OFFSET 21.220093 31.248413 -262.703979
								CHANNELS 3 Zrotation Yrotation Xrotation
								End Site
								{
									OFFSET 0.000000 0.000000 0.000000
								}
							}
						}
					}
				}
			}
		}
	}
	JOINT joint_14
	{
		OFFSET -15.458496 -88.861694 -109.593018
		CHANNELS 3 Zrotation Yrotation Xrotation
		JOINT joint_15
		{
			OFFSET -6.193359 6.837952 -506.710999
			CHANNELS 3 Zrotation Yrotation Xrotation
			JOINT joint_16
			{
				OFFSET -35.096680 13.289795 -435.677025
				CHANNELS 3 Zrotation Yrotation Xrotation
				JOINT joint_17
				{
					OFFSET 158.491211 -33.916565 -71.771002
					CHANNELS 3 Zrotation Yrotation Xrotation
					End Site
					{
						OFFSET 0.000000 0.000000 0.000000
					}
				}
			}
		}
	}
	JOINT joint_18
	{
		OFFSET 23.116943 86.574158 -110.082031
		CHANNELS 3 Zrotation Yrotation Xrotation
		JOINT joint_19
		{
			OFFSET -6.125854 -0.283569 -506.757019
			CHANNELS 3 Zrotation Yrotation Xrotation
			JOINT joint_20
			{
				OFFSET -63.240234 11.589966 -432.537994
				CHANNELS 3 Zrotation Yrotation Xrotation
				JOINT joint_21
				{
					OFFSET 156.074219 -41.487305 -73.077999
					CHANNELS 3 Zrotation Yrotation Xrotation
					End Site
					{
						OFFSET 0.000000 0.000000 0.000000
					}
				}
			}
		}
	}
}
MOTION
Frames: 10
Frame Time: 0.016667
-1082.671265 891.291504 1141.176025 11.109304 -0.735140 -0.068828 0.395374 0.035425 0.181534 0.383475 -0.024322 -0.026246 0.385883 0.017569 0.009275 -0.291072 0.537159 1.164672 0.000000 0.000000 0.000000 2.264961 0.017309 -0.724043 0.115037 0.184217 0.892006 0.025188 -0.657886 -0.945004 0.000000 0.000000 0.000000 -1.984729 -0.327521 0.236210 -0.092150 0.156282 -0.372936 -0.318816 -2.022030 -0.472766 0.000000 0.000000 0.000000 -0.461597 -1.200601 -1.083366 -0.429565 1.432225 0.439754 -0.410002 0.025823 -0.180166 0.000000 0.000000 0.000000 -1.397846 -1.329176 -0.561304 -1.396799 1.481571 -0.446851 -1.419008 1.339657 -0.308124 0.000000 0.000000 0.000000 
-1082.684326 891.334106 1141.172974 11.108187 -0.732175 -0.073614 0.394352 0.037544 0.173171 0.382975 -0.025520 -0.024734 0.385213 0.018171 0.007965 -0.291126 0.544945 1.166648 0.000000 0.000000 0.000000 2.267892 0.021757 -0.725599 0.114678 0.189031 0.892176 0.025324 -0.659423 -0.943389 0.000000 0.000000 0.000000 -1.988038 -0.327304 0.241688 -0.091899 0.158619 -0.374346 -0.320527 -2.026672 -0.485237 0.000000 0.000000 0.000000 -0.461206 -1.206544 -1.081929 -0.428997 1.436544 0.442891 -0.409291 0.024384 -0.180152 0.000000 0.000000 0.000000 -1.398207 -1.331938 -0.558583 -1.397127 1.480438 -0.446152 -1.419206 1.340217 -0.308066 0.000000 0.000000 0.000000 
-1082.697021 891.373718 1141.166992 11.108066 -0.728677 -0.078721 0.393358 0.043079 0.162821 0.382563 -0.028642 -0.023413 0.384757 0.021504 0.007821 -0.291894 0.546976 1.169792 0.000000 0.000000 0.000000 2.267819 0.024736 -0.727551 0.114206 0.191814 0.891467 0.025834 -0.666010 -0.939993 0.000000 0.000000 0.000000 -1.993815 -0.329198 0.246539 -0.091535 0.158660 -0.373296 -0.322192 -2.030871 -0.497955 0.000000 0.000000 0.000000 -0.461179 -1.213966 -1.080124 -0.428723 1.442856 0.446148 -0.408895 0.022483 -0.180379 0.000000 0.000000 0.000000 -1.399612 -1.334490 -0.554800 -1.398481 1.477754 -0.446087 -1.420408 1.340050 -0.308672 0.000000 0.000000 0.000000 
-1082.702148 891.410339 1141.156982 11.106980 -0.724116 -0.085288 0.391424 0.044388 0.152528 0.381252 -0.029455 -0.022148 0.383310 0.022387 0.006755 -0.292460 0.548806 1.172202 0.000000 0.000000 0.000000 2.273582 0.028693 -0.730597 0.113862 0.196077 0.893599 0.026310 -0.671767 -0.935889 0.000000 0.000000 0.000000 -1.996343 -0.329287 0.248355 -0.090978 0.158724 -0.369597 -0.322701 -2.032049 -0.502397 0.000000 0.000000 0.000000 -0.461117 -1.222273 -1.076627 -0.428392 1.449173 0.449810 -0.408404 0.021209 -0.180429 0.000000 0.000000 0.000000 -1.400525 -1.338378 -0.548588 -1.399302 1.477220 -0.447065 -1.421253 1.336120 -0.310112 0.000000 0.000000 0.000000 
-1082.699951 891.443970 1141.142944 11.104309 -0.718244 -0.094334 0.387894 0.038358 0.141449 0.378614 -0.025738 -0.018419 0.380246 0.019048 0.004613 -0.293045 0.552326 1.175105 0.000000 0.000000 0.000000 2.289316 0.034270 -0.735015 0.113667 0.203232 0.899113 0.026610 -0.674695 -0.931558 0.000000 0.000000 0.000000 -1.992668 -0.325945 0.243938 -0.090140 0.158955 -0.361972 -0.321595 -2.029193 -0.494909 0.000000 0.000000 0.000000 -0.460470 -1.231759 -1.070422 -0.427450 1.455237 0.454015 -0.407269 0.020480 -0.180071 0.000000 0.000000 0.000000 -1.400936 -1.346123 -0.539401 -1.399577 1.483482 -0.448067 -1.421678 1.327259 -0.312666 0.000000 0.000000 0.000000 
-1082.688965 891.473816 1141.124023 11.100254 -0.710772 -0.104613 0.382718 0.026899 0.130034 0.374354 -0.019523 -0.015656 0.375629 0.013889 0.003046 -0.293202 0.556775 1.176738 0.000000 0.000000 0.000000 2.313099 0.040281 -0.741459 0.113639 0.211551 0.907888 0.026811 -0.675667 -0.926105 0.000000 0.000000 0.000000 -1.982614 -0.320674 0.236578 -0.089230 0.158896 -0.352375 -0.319364 -2.023558 -0.479075 0.000000 0.000000 0.000000 -0.459446 -1.242650 -1.062685 -0.426095 1.461245 0.458614 -0.405704 0.019733 -0.179522 0.000000 0.000000 0.000000 -1.400749 -1.355782 -0.528032 -1.399214 1.491933 -0.449959 -1.421624 1.314369 -0.316069 0.000000 0.000000 0.000000 
-1082.663208 891.491638 1141.104980 11.096865 -0.700424 -0.112577 0.377040 0.010309 0.111630 0.370129 -0.012704 -0.011064 0.370839 0.007639 0.000258 -0.293077 0.563658 1.177964 0.000000 0.000000 0.000000 2.337533 0.047587 -0.748231 0.114064 0.220164 0.921575 0.026929 -0.675765 -0.921756 0.000000 0.000000 0.000000 -1.972065 -0.314708 0.230753 -0.088077 0.159319 -0.340502 -0.316994 -2.017964 -0.461506 0.000000 0.000000 0.000000 -0.458791 -1.255388 -1.056533 -0.425091 1.465915 0.462850 -0.404477 0.019666 -0.178981 0.000000 0.000000 0.000000 -1.399740 -1.363691 -0.515331 -1.397953 1.492444 -0.458117 -1.421376 1.299135 -0.320006 0.000000 0.000000 0.000000 
-1082.619263 891.494812 1141.087036 11.093879 -0.685774 -0.116557 0.368810 -0.012428 0.085192 0.363874 -0.007727 -0.005925 0.363941 0.002738 -0.003544 -0.292343 0.577773 1.178713 0.000000 0.000000 0.000000 2.371757 0.055105 -0.756321 0.115387 0.229017 0.943960 0.026693 -0.671542 -0.920419 0.000000 0.000000 0.000000 -1.952753 -0.307822 0.228726 -0.086724 0.159358 -0.326228 -0.314673 -2.012800 -0.443626 0.000000 0.000000 0.000000 -0.458235 -1.271233 -1.053481 -0.424144 1.468953 0.466494 -0.403314 0.020499 -0.178276 0.000000 0.000000 0.000000 -1.397788 -1.369792 -0.502088 -1.395667 1.482121 -0.474167 -1.420959 1.280291 -0.324827 0.000000 0.000000 0.000000 
-1082.560425 891.485962 1141.067993 11.091181 -0.668203 -0.118101 0.359473 -0.039618 0.050813 0.357174 -0.003591 0.002432 0.356313 -0.002624 -0.008616 -0.291063 0.595132 1.178312 0.000000 0.000000 0.000000 2.408492 0.063638 -0.766053 0.117289 0.237796 0.972326 0.026320 -0.665723 -0.920432 0.000000 0.000000 0.000000 -1.930281 -0.300058 0.227967 -0.085154 0.159538 -0.309811 -0.312179 -2.007337 -0.424176 0.000000 0.000000 0.000000 -0.457782 -1.288846 -1.051930 -0.423282 1.470381 0.469359 -0.402269 0.021447 -0.177602 0.000000 0.000000 0.000000 -1.395016 -1.374021 -0.487748 -1.392493 1.463450 -0.496110 -1.420295 1.259068 -0.330168 0.000000 0.000000 0.000000 
-1082.483643 891.464539 1141.048950 11.091386 -0.648328 -0.119095 0.349219 -0.073714 0.011604 0.349907 0.002633 0.010757 0.347994 -0.009432 -0.015235 -0.288165 0.613616 1.172481 0.000000 0.000000 0.000000 2.438263 0.073596 -0.773290 0.118767 0.247444 0.998600 0.026362 -0.665187 -0.917545 0.000000 0.000000 0.000000 -1.910939 -0.291376 0.228910 -0.083217 0.161296 -0.291810 -0.310019 -2.002820 -0.407191 0.000000 0.000000 0.000000 -0.458263 -1.306771 -1.049679 -0.423364 1.469581 0.471574 -0.402142 0.022748 -0.177267 0.000000 0.000000 0.000000 -1.392668 -1.375348 -0.470420 -1.389665 1.434638 -0.523547 -1.420506 1.240988 -0.335084 0.000000 0.000000 0.000000 
